<svg xmlns="http://www.w3.org/2000/svg" viewBox="0 0 60 60">
  <title>Asset 1</title>
  <g id="Layer_2" data-name="Layer 2">
    <g id="Layer_1-2" data-name="Layer 1">
      <path d="M39.27,22.58h1.51A1.23,1.23,0,0,0,42,21.35V18.46a1.23,1.23,0,0,0-1.23-1.24H37.83a1.23,1.23,0,0,0-1.23,1.24c0,1,0,1.91,0,2.87a1.61,1.61,0,0,0,.07.43,1.24,1.24,0,0,0,1.21.82ZM30,23.82a6.18,6.18,0,1,0,6.18,6.31A6.17,6.17,0,0,0,30,23.82Zm-11.95,3.3V40.74A1.23,1.23,0,0,0,19.26,42H40.74A1.23,1.23,0,0,0,42,40.74V27.12H39a9.56,9.56,0,0,1,.38,4,9.49,9.49,0,0,1-14,7.15,9.28,9.28,0,0,1-3.69-3.71A9.46,9.46,0,0,1,21,27.12ZM42.21,45.26l.47-.09a3.3,3.3,0,0,0,2.51-2.55c0-.14,0-.28.07-.41V17.79c0-.13,0-.26-.07-.4a3.31,3.31,0,0,0-2.78-2.61l-.17,0H17.76a3.39,3.39,0,0,0-.44.08,3.29,3.29,0,0,0-2.55,2.76c0,.06,0,.12,0,.17V42.24c0,.15.05.31.08.47a3.32,3.32,0,0,0,2.77,2.52l.2,0ZM30,60A30,30,0,1,1,60,30,30,30,0,0,1,30,60Z" fill="#fff"/>
    </g>
  </g>
</svg>
