<?xml version="1.0" encoding="utf-8"?>
<!-- Generator: Adobe Illustrator 22.1.0, SVG Export Plug-In . SVG Version: 6.00 Build 0)  -->
<svg version="1.1" id="Layer_1" xmlns="http://www.w3.org/2000/svg" xmlns:xlink="http://www.w3.org/1999/xlink" x="0px" y="0px"
	 viewBox="0 0 60 60" style="enable-background:new 0 0 60 60;" xml:space="preserve">
<style type="text/css">
	.st0{fill:#334151;}
</style>
<title>Asset 1</title>
<g id="Layer_2_1_">
	<g id="Layer_1-2">
		<path class="st0" d="M39.3,22.6h1.5c0.7,0,1.2-0.6,1.2-1.2v-2.9c0-0.7-0.5-1.2-1.2-1.2c0,0,0,0,0,0h-2.9c-0.7,0-1.2,0.6-1.2,1.2
			c0,0,0,0,0,0c0,1,0,1.9,0,2.9c0,0.1,0,0.3,0.1,0.4c0.2,0.5,0.7,0.8,1.2,0.8L39.3,22.6z M30,23.8c-3.4,0-6.2,2.8-6.2,6.2
			c0,3.4,2.8,6.2,6.2,6.2c3.4,0,6.1-2.7,6.2-6.1c0.1-3.4-2.6-6.2-6-6.3C30.1,23.8,30.1,23.8,30,23.8z M18,27.1v13.6
			c0,0.7,0.5,1.2,1.2,1.3c0,0,0,0,0,0h21.5c0.7,0,1.2-0.5,1.3-1.2c0,0,0,0,0-0.1V27.1h-3c0.4,1.3,0.5,2.7,0.4,4
			c-0.6,5.2-5.4,8.9-10.6,8.3c-1.2-0.1-2.4-0.5-3.4-1.1c-1.6-0.9-2.8-2.1-3.7-3.7c-1.2-2.3-1.5-5-0.7-7.4L18,27.1z M42.2,45.3
			l0.5-0.1c1.3-0.3,2.2-1.3,2.5-2.5c0-0.1,0-0.3,0.1-0.4V17.8c0-0.1,0-0.3-0.1-0.4c-0.3-1.4-1.4-2.4-2.8-2.6h-0.2H17.8
			c-0.1,0-0.3,0-0.4,0.1c-1.3,0.3-2.4,1.4-2.6,2.8c0,0.1,0,0.1,0,0.2v24.5c0,0.2,0.1,0.3,0.1,0.5c0.3,1.3,1.4,2.3,2.8,2.5h0.2
			L42.2,45.3z M30,60C13.4,60,0,46.6,0,30S13.4,0,30,0s30,13.4,30,30S46.6,60,30,60z"/>
	</g>
</g>
</svg>
